HIERARCHY
ROOT Hips
{
	OFFSET 0.000000 71.427986 0.000000
	CHANNELS 6 Xposition Yposition Zposition Xrotation Yrotation Zrotation
	JOINT Pelvis
	{
		OFFSET 0.000000 0.000000 0.000000
		CHANNELS 3 Xrotation Yrotation Zrotation
		JOINT LeftUpLeg
		{
			OFFSET 6.797100 -2.508499 -1.318700
			CHANNELS 3 Xrotation Yrotation Zrotation
			JOINT LeftLeg
			{
				OFFSET 0.069008 -29.241863 0.690200
				CHANNELS 3 Xrotation Yrotation Zrotation
				JOINT LeftFoot
				{
					OFFSET -0.069008 -29.568123 -0.266800
					CHANNELS 3 Xrotation Yrotation Zrotation
					JOINT LeftToeBase
					{
						OFFSET 3.145500 -8.631000 16.059900
						CHANNELS 3 Xrotation Yrotation Zrotation
						End Site
						{
							OFFSET 0.000000 18.501587 0.000000
						}
					}
				}
			}
			JOINT Left_ShortSleeve
			{
				OFFSET 0.265923 -10.480953 1.153800
				CHANNELS 3 Xrotation Yrotation Zrotation
				End Site
				{
					OFFSET 1.725763 19.823879 0.000000
				}
			}
		}
		JOINT RightUpLeg
		{
			OFFSET -6.797100 -2.508499 -1.318700
			CHANNELS 3 Xrotation Yrotation Zrotation
			JOINT RightLeg
			{
				OFFSET -0.082453 -29.241932 0.688000
				CHANNELS 3 Xrotation Yrotation Zrotation
				JOINT RightFoot
				{
					OFFSET 0.082453 -29.568058 -0.264600
					CHANNELS 3 Xrotation Yrotation Zrotation
					JOINT RightToeBase
					{
						OFFSET -3.115300 -8.682800 16.113400
						CHANNELS 3 Xrotation Yrotation Zrotation
						End Site
						{
							OFFSET 0.000000 18.567114 0.000000
						}
					}
				}
			}
			JOINT Right_ShortSleeve
			{
				OFFSET -0.265923 -10.480953 1.153800
				CHANNELS 3 Xrotation Yrotation Zrotation
				End Site
				{
					OFFSET -1.725766 19.823910 0.000000
				}
			}
		}
	}
	JOINT Spine
	{
		OFFSET 0.000000 13.368103 0.470500
		CHANNELS 3 Xrotation Yrotation Zrotation
		JOINT Spine1
		{
			OFFSET 0.147000 13.837402 0.538800
			CHANNELS 3 Xrotation Yrotation Zrotation
			JOINT Spine2
			{
				OFFSET 0.168000 16.242897 -1.435500
				CHANNELS 3 Xrotation Yrotation Zrotation
				JOINT Neck
				{
					OFFSET 0.217200 18.631500 -1.679100
					CHANNELS 3 Xrotation Yrotation Zrotation
					JOINT Head
					{
						OFFSET 0.000000 6.599396 1.385900
						CHANNELS 3 Xrotation Yrotation Zrotation
						JOINT Hat
						{
							OFFSET -0.532200 27.220596 -10.096100
							CHANNELS 3 Xrotation Yrotation Zrotation
							End Site
							{
								OFFSET 0.000000 22.029861 0.000000
							}
						}
						JOINT HairD
						{
							OFFSET -10.777400 17.437393 -1.325900
							CHANNELS 3 Xrotation Yrotation Zrotation
							JOINT HairD1
							{
								OFFSET -3.290299 -11.051193 1.062200
								CHANNELS 3 Xrotation Yrotation Zrotation
								End Site
								{
									OFFSET 0.000000 11.579437 0.000000
								}
							}
						}
						JOINT HairB
						{
							OFFSET -10.777400 17.437393 1.467900
							CHANNELS 3 Xrotation Yrotation Zrotation
							JOINT HairB1
							{
								OFFSET -1.561200 -12.956299 3.590200
								CHANNELS 3 Xrotation Yrotation Zrotation
								End Site
								{
									OFFSET 0.000000 13.534866 0.000000
								}
							}
						}
						JOINT HairA
						{
							OFFSET 9.713100 17.437393 1.467900
							CHANNELS 3 Xrotation Yrotation Zrotation
							JOINT HairA1
							{
								OFFSET 1.561200 -12.956299 3.590200
								CHANNELS 3 Xrotation Yrotation Zrotation
								End Site
								{
									OFFSET 0.000000 13.534866 0.000000
								}
							}
						}
						JOINT HairC
						{
							OFFSET 9.713100 17.437393 -1.325900
							CHANNELS 3 Xrotation Yrotation Zrotation
							JOINT HairC1
							{
								OFFSET 3.290300 -11.051193 1.062200
								CHANNELS 3 Xrotation Yrotation Zrotation
								End Site
								{
									OFFSET 0.000000 11.579437 0.000000
								}
							}
						}
					}
				}
				JOINT LeftShoulder
				{
					OFFSET 5.101800 15.108002 -2.763700
					CHANNELS 3 Xrotation Yrotation Zrotation
					JOINT LeftArm
					{
						OFFSET 9.825497 2.506317 -1.597400
						CHANNELS 3 Xrotation Yrotation Zrotation
						JOINT LeftForeArm
						{
							OFFSET 21.966244 0.000000 0.000000
							CHANNELS 3 Xrotation Yrotation Zrotation
							JOINT LeftHand
							{
								OFFSET 33.879036 0.000000 0.000000
								CHANNELS 3 Xrotation Yrotation Zrotation
								JOINT LeftHandThumb1
								{
									OFFSET 6.715286 -2.359680 3.363841
									CHANNELS 3 Xrotation Yrotation Zrotation
									JOINT LeftHandThumb2
									{
										OFFSET 2.507072 -1.447464 1.447461
										CHANNELS 3 Xrotation Yrotation Zrotation
										JOINT LeftHandThumb3
										{
											OFFSET 2.898338 -1.673355 1.673357
											CHANNELS 3 Xrotation Yrotation Zrotation
											End Site
											{
												OFFSET -0.295959 3.727692 -0.131651
											}
										}
									}
								}
								JOINT LeftHandIndex1
								{
									OFFSET 14.190811 -0.254547 3.840278
									CHANNELS 3 Xrotation Yrotation Zrotation
									JOINT LeftHandIndex2
									{
										OFFSET 3.551727 0.000000 -0.000000
										CHANNELS 3 Xrotation Yrotation Zrotation
										JOINT LeftHandIndex3
										{
											OFFSET 2.894196 0.000000 0.000000
											CHANNELS 3 Xrotation Yrotation Zrotation
											End Site
											{
												OFFSET -1.000603 2.690872 0.366626
											}
										}
									}
								}
								JOINT LeftHandMiddle1
								{
									OFFSET 13.776489 0.000000 0.000000
									CHANNELS 3 Xrotation Yrotation Zrotation
									JOINT LeftHandMiddle2
									{
										OFFSET 3.438232 0.000000 0.000000
										CHANNELS 3 Xrotation Yrotation Zrotation
										JOINT LeftHandMiddle3
										{
											OFFSET 3.691551 0.000000 0.000000
											CHANNELS 3 Xrotation Yrotation Zrotation
											End Site
											{
												OFFSET -1.082298 3.499527 0.457670
											}
										}
									}
								}
								JOINT LeftHandRing1
								{
									OFFSET 13.966164 -0.268127 -3.067488
									CHANNELS 3 Xrotation Yrotation Zrotation
									JOINT LeftHandRing2
									{
										OFFSET 3.162567 0.000000 0.000000
										CHANNELS 3 Xrotation Yrotation Zrotation
										JOINT LeftHandRing3
										{
											OFFSET 3.324348 0.000000 0.000000
											CHANNELS 3 Xrotation Yrotation Zrotation
											End Site
											{
												OFFSET -0.861900 3.184998 0.405154
											}
										}
									}
								}
								JOINT LeftHandPinky1
								{
									OFFSET 13.131393 -0.168503 -5.746925
									CHANNELS 3 Xrotation Yrotation Zrotation
									JOINT LeftHandPinky2
									{
										OFFSET 2.849182 0.000000 0.000000
										CHANNELS 3 Xrotation Yrotation Zrotation
										JOINT LeftHandPinky3
										{
											OFFSET 2.805038 0.000000 0.000000
											CHANNELS 3 Xrotation Yrotation Zrotation
											End Site
											{
												OFFSET -0.882500 2.642609 0.325652
											}
										}
									}
								}
							}
							JOINT Left_Sleeve
							{
								OFFSET 6.592125 -0.646545 0.805568
								CHANNELS 3 Xrotation Yrotation Zrotation
								End Site
								{
									OFFSET -0.000179 20.275787 -0.000000
								}
							}
						}
					}
				}
				JOINT RightShoulder
				{
					OFFSET -5.731700 15.108002 -2.763700
					CHANNELS 3 Xrotation Yrotation Zrotation
					JOINT RightArm
					{
						OFFSET -9.825497 2.506317 -1.597400
						CHANNELS 3 Xrotation Yrotation Zrotation
						JOINT RightForeArm
						{
							OFFSET -21.966242 0.000000 0.000000
							CHANNELS 3 Xrotation Yrotation Zrotation
							JOINT RightHand
							{
								OFFSET -33.879032 0.000000 0.000000
								CHANNELS 3 Xrotation Yrotation Zrotation
								JOINT RightHandThumb1
								{
									OFFSET -6.715286 -2.359680 3.363841
									CHANNELS 3 Xrotation Yrotation Zrotation
									JOINT RightHandThumb2
									{
										OFFSET -2.507072 -1.447464 1.447461
										CHANNELS 3 Xrotation Yrotation Zrotation
										JOINT RightHandThumb3
										{
											OFFSET -2.898338 -1.673355 1.673357
											CHANNELS 3 Xrotation Yrotation Zrotation
											End Site
											{
												OFFSET 0.295959 3.727692 -0.131651
											}
										}
									}
								}
								JOINT RightHandIndex1
								{
									OFFSET -14.190811 -0.254547 3.840278
									CHANNELS 3 Xrotation Yrotation Zrotation
									JOINT RightHandIndex2
									{
										OFFSET -3.551727 0.000000 -0.000000
										CHANNELS 3 Xrotation Yrotation Zrotation
										JOINT RightHandIndex3
										{
											OFFSET -2.894196 0.000000 0.000000
											CHANNELS 3 Xrotation Yrotation Zrotation
											End Site
											{
												OFFSET 1.000603 2.690872 0.366626
											}
										}
									}
								}
								JOINT RightHandMiddle1
								{
									OFFSET -13.776489 0.000000 0.000000
									CHANNELS 3 Xrotation Yrotation Zrotation
									JOINT RightHandMiddle2
									{
										OFFSET -3.438232 0.000000 0.000000
										CHANNELS 3 Xrotation Yrotation Zrotation
										JOINT RightHandMiddle3
										{
											OFFSET -3.691551 0.000000 0.000000
											CHANNELS 3 Xrotation Yrotation Zrotation
											End Site
											{
												OFFSET 1.082298 3.499527 0.457670
											}
										}
									}
								}
								JOINT RightHandRing1
								{
									OFFSET -13.966164 -0.268127 -3.067488
									CHANNELS 3 Xrotation Yrotation Zrotation
									JOINT RightHandRing2
									{
										OFFSET -3.162567 0.000000 0.000000
										CHANNELS 3 Xrotation Yrotation Zrotation
										JOINT RightHandRing3
										{
											OFFSET -3.324348 0.000000 0.000000
											CHANNELS 3 Xrotation Yrotation Zrotation
											End Site
											{
												OFFSET 0.861900 3.184998 0.405154
											}
										}
									}
								}
								JOINT RightHandPinky1
								{
									OFFSET -13.131393 -0.168503 -5.746925
									CHANNELS 3 Xrotation Yrotation Zrotation
									JOINT RightHandPinky2
									{
										OFFSET -2.849182 0.000000 0.000000
										CHANNELS 3 Xrotation Yrotation Zrotation
										JOINT RightHandPinky3
										{
											OFFSET -2.805038 0.000000 0.000000
											CHANNELS 3 Xrotation Yrotation Zrotation
											End Site
											{
												OFFSET 0.882500 2.642609 0.325652
											}
										}
									}
								}
							}
							JOINT Right_Sleeve
							{
								OFFSET -6.592125 -0.646545 0.805568
								CHANNELS 3 Xrotation Yrotation Zrotation
								End Site
								{
									OFFSET 0.000179 20.275787 -0.000000
								}
							}
						}
					}
				}
				JOINT Bind_Right_JacketString
				{
					OFFSET -3.534800 11.969597 7.200700
					CHANNELS 3 Xrotation Yrotation Zrotation
					JOINT Bind_Right_JacketString1
					{
						OFFSET -0.319900 -6.102600 2.794100
						CHANNELS 3 Xrotation Yrotation Zrotation
						End Site
						{
							OFFSET 0.000000 6.719452 0.000000
						}
					}
				}
				JOINT Bind_Left_JacketString
				{
					OFFSET 2.904800 11.969597 7.200700
					CHANNELS 3 Xrotation Yrotation Zrotation
					JOINT Bind_Left_JacketString1
					{
						OFFSET 0.364800 -5.904503 3.186800
						CHANNELS 3 Xrotation Yrotation Zrotation
						End Site
						{
							OFFSET 0.000000 6.719513 0.000000
						}
					}
				}
				JOINT HairE
				{
					OFFSET 5.915200 17.612701 -11.592200
					CHANNELS 3 Xrotation Yrotation Zrotation
					JOINT HairE1
					{
						OFFSET 0.289200 -7.171898 -1.284500
						CHANNELS 3 Xrotation Yrotation Zrotation
						End Site
						{
							OFFSET 0.000000 7.291756 0.000000
						}
					}
				}
				JOINT HairF
				{
					OFFSET -0.864800 17.612701 -11.592200
					CHANNELS 3 Xrotation Yrotation Zrotation
					JOINT HairF1
					{
						OFFSET 0.000000 -14.087097 -2.127501
						CHANNELS 3 Xrotation Yrotation Zrotation
						End Site
						{
							OFFSET 0.000000 14.246841 0.000000
						}
					}
				}
				JOINT HairG
				{
					OFFSET -8.087700 17.612701 -11.592200
					CHANNELS 3 Xrotation Yrotation Zrotation
					JOINT HairG1
					{
						OFFSET -0.293600 -6.081398 -0.910100
						CHANNELS 3 Xrotation Yrotation Zrotation
						End Site
						{
							OFFSET 0.000000 6.156120 0.000000
						}
					}
				}
			}
		}
	}
	JOINT Pouch
	{
		OFFSET 0.000000 4.394501 10.847300
		CHANNELS 3 Xrotation Yrotation Zrotation
		End Site
		{
			OFFSET 0.000000 21.880577 0.000000
		}
	}
	JOINT Bag
	{
		OFFSET -13.229000 4.813004 -0.593300
		CHANNELS 3 Xrotation Yrotation Zrotation
		End Site
		{
			OFFSET 0.000000 21.880577 0.000000
		}
	}
	JOINT OccupyGuyFacialAnim_Joint
	{
		OFFSET 1.000000 -70.206398 -1.655000
		CHANNELS 3 Xrotation Yrotation Zrotation
		End Site
		{
			OFFSET 0.000000 21.880577 0.000000
		}
	}
}
MOTION
Frames: 4
Frame Time: 0.016667
-2.392438 31.405708 64.928391 20.448775 -24.558247 -5.322890 -0.000000 -0.000001 0.000000 -0.947378 6.576539 -1.358569 93.281225 -14.672209 -1.521706 22.675118 -4.147852 -27.022735 -0.000002 -0.000001 0.000000 -0.000001 -0.000001 -0.000001 10.647487 9.552904 -11.943462 59.870781 11.237278 -14.192355 41.863261 6.512330 19.087228 -0.000001 0.000001 0.000001 0.000000 -0.000001 0.000001 5.373955 0.663609 0.301058 -5.387902 1.463344 2.228128 -5.408691 1.438962 2.129567 -64.248694 1.118115 14.686595 13.384904 14.022322 -18.292370 0.000002 -0.000001 -0.000000 0.000002 -0.000001 -0.000000 0.000002 -0.000001 -0.000001 0.000002 -0.000001 -0.000000 0.000004 0.000000 -0.000000 0.000002 -0.000001 -0.000000 0.000004 0.000000 -0.000000 0.000002 -0.000001 -0.000000 0.000002 -0.000001 -0.000000 -18.927007 2.423272 -16.209296 6.399253 13.475592 -49.024045 73.253287 -19.968932 30.111381 -15.141011 22.562551 -4.718131 -0.610183 -6.200714 8.854794 3.159801 21.613949 -1.887062 0.000003 0.000003 -0.000001 13.340407 -1.006124 10.837317 -0.167762 0.303283 -30.950551 0.000001 -0.000001 -0.000000 8.497904 -0.331004 -0.760238 0.230684 0.660654 -29.746840 -0.000001 0.000000 0.000001 6.113358 3.149170 -16.056025 0.047050 0.321389 -29.970406 -0.000001 0.000002 -0.000001 -5.635393 7.708994 -13.723652 0.223793 0.276092 -46.433299 -0.000003 0.000001 -0.000002 0.000000 -0.000000 -0.000001 -18.645059 3.158387 16.723940 7.365363 -4.012502 58.411662 156.201932 144.055766 -156.460728 58.447131 -8.915777 -6.382668 0.630127 8.367622 -11.244489 -0.724219 -13.326712 3.592233 -0.000000 -0.000002 0.000000 19.441947 11.173340 -14.416325 -0.119650 -0.321766 16.959146 0.000001 0.000002 -0.000003 4.337936 2.446825 -5.888747 0.343346 -0.457185 25.813822 0.000002 0.000001 0.000001 -6.996700 -10.686231 4.645084 0.112037 -0.082038 25.079439 -0.000000 0.000001 0.000001 -19.430135 -20.234241 4.912557 0.220286 -0.081671 35.768133 0.000002 -0.000001 -0.000003 0.000003 -0.000002 -0.000001 -0.000000 -0.000000 -0.000000 0.000001 0.000001 -0.000000 -0.000000 -0.000000 0.000000 -0.000000 -0.000000 0.000000 -0.000000 -0.000000 -0.000000 0.000001 0.000001 -0.000000 -0.000000 -0.000000 0.000000 -0.000000 -0.000000 0.000000 -0.000000 -0.000000 -0.000000 0.000001 0.000001 -0.000000 -0.000000 -0.000001 0.000000 -0.000000 -0.000001 0.000000 -0.000000 -0.000001 0.000000 
-2.391366 31.186882 65.655739 21.494443 -24.693603 -5.336156 -0.000002 0.000001 -0.000000 -0.517257 5.810044 -1.868121 91.766651 -14.325929 -1.381204 22.951184 -4.227665 -27.119012 -0.000002 0.000001 -0.000001 0.000000 -0.000000 -0.000002 10.545608 9.152383 -11.741425 59.531143 11.813540 -13.916206 41.125525 6.446444 19.311025 0.000001 -0.000000 0.000000 -0.000002 0.000000 -0.000001 5.329166 0.648338 0.411795 -5.487566 1.423594 2.351739 -5.507081 1.408918 2.254501 -65.359576 0.986972 14.866095 13.903052 14.117407 -18.447576 -0.000003 0.000000 -0.000001 -0.000003 0.000000 -0.000001 -0.000003 0.000000 -0.000001 -0.000003 0.000000 -0.000001 -0.000004 0.000000 0.000001 -0.000003 0.000000 -0.000001 -0.000004 0.000000 0.000001 -0.000003 0.000000 -0.000001 -0.000003 0.000000 -0.000001 -19.123840 2.643944 -15.817977 8.811190 13.503267 -48.194744 72.720088 -20.634403 30.098707 -17.435810 22.649367 -4.324282 -0.741610 -6.712987 8.749669 2.927779 21.139815 -1.929420 -0.000000 -0.000002 -0.000003 13.336277 -1.001478 12.126829 -0.169165 0.302489 -29.660974 0.000001 0.000000 0.000002 8.519022 -0.343217 0.529217 0.223467 0.656149 -28.457177 0.000001 -0.000001 0.000002 6.127087 3.134676 -14.767291 0.046571 0.312739 -28.680876 -0.000001 -0.000000 0.000001 -5.629741 7.701560 -12.434842 0.218851 0.271844 -45.143715 -0.000000 -0.000003 0.000002 -0.000000 -0.000000 0.000000 -18.793161 2.934420 16.971142 7.755223 -2.903524 58.461324 155.010119 141.216237 -155.160629 55.970217 -10.115548 -6.424047 0.621924 8.403531 -11.236668 -0.945192 -12.892626 3.661384 0.000001 -0.000002 -0.000000 19.440153 11.172230 -15.590156 -0.120694 -0.320677 15.784926 0.000001 0.000001 -0.000003 4.357211 2.457273 -7.063552 0.337128 -0.452628 24.639607 0.000000 -0.000002 0.000002 -6.986741 -10.676687 3.472845 0.112278 -0.074167 23.905268 -0.000000 -0.000001 -0.000002 -19.426340 -20.229989 3.739722 0.216541 -0.077071 34.593904 -0.000001 -0.000001 -0.000001 0.000002 0.000000 -0.000001 -0.000001 -0.000002 0.000001 0.000000 -0.000000 0.000000 -0.000001 -0.000002 -0.000000 -0.000001 -0.000002 -0.000000 -0.000001 -0.000002 0.000001 0.000000 -0.000000 0.000000 -0.000001 -0.000002 -0.000000 -0.000001 -0.000002 -0.000000 -0.000001 -0.000002 0.000001 0.000000 -0.000000 0.000000 -0.000002 0.000001 -0.000000 -0.000002 0.000001 -0.000000 -0.000002 0.000001 -0.000000 
-2.406136 30.945953 66.315529 22.589140 -24.783895 -5.290857 -0.000002 -0.000001 0.000000 -0.223039 5.006586 -2.420998 90.413120 -13.465034 -1.147670 23.125393 -4.273357 -27.154182 -0.000003 0.000001 0.000000 -0.000001 0.000000 0.000001 10.569118 8.830345 -11.588667 58.893422 12.024866 -13.642005 41.507999 6.610815 19.638035 -0.000002 0.000000 0.000001 0.000001 -0.000001 0.000000 5.292545 0.664506 0.480660 -5.579765 1.386648 2.467675 -5.597971 1.382303 2.371569 -66.531739 0.851082 14.977234 14.412283 14.182144 -18.577614 0.000001 0.000001 0.000001 0.000001 0.000001 0.000001 0.000001 0.000001 0.000001 0.000001 0.000001 0.000001 -0.000001 0.000001 -0.000001 0.000001 0.000001 0.000001 -0.000001 0.000001 -0.000001 0.000001 0.000001 0.000001 0.000001 0.000001 0.000001 -19.324736 2.867695 -15.372842 11.222559 12.997944 -47.136099 70.495885 -22.628967 28.974485 -19.002126 22.383129 -3.511817 -0.855955 -7.156670 8.657850 2.728074 20.728673 -1.967460 0.000003 0.000002 -0.000000 13.332690 -0.997564 13.243802 -0.170388 0.301693 -28.543900 0.000001 -0.000001 -0.000000 8.537474 -0.353309 1.646214 0.217323 0.652129 -27.340040 0.000000 0.000001 -0.000001 6.139197 3.122402 -13.651079 0.046415 0.305289 -27.563778 0.000002 0.000001 -0.000001 -5.624719 7.695239 -11.318503 0.214610 0.268156 -44.026611 -0.000004 -0.000001 0.000003 0.000001 -0.000000 -0.000000 -18.954770 2.720317 17.238103 8.007430 -1.543116 58.369000 156.553195 137.723593 -156.028841 51.277553 -11.257164 -6.118194 0.614088 8.437603 -11.229198 -1.155316 -12.479945 3.728708 0.000002 0.000002 -0.000004 19.438413 11.171111 -16.706489 -0.121714 -0.319658 14.668267 -0.000003 0.000000 0.000000 4.375715 2.466748 -8.180845 0.331316 -0.448172 23.522968 0.000002 0.000001 -0.000002 -6.977115 -10.667858 2.358067 0.112693 -0.066676 22.788668 0.000001 -0.000001 -0.000002 -19.422659 -20.226038 2.624319 0.213066 -0.072650 33.477305 -0.000001 0.000000 0.000002 0.000001 -0.000002 0.000001 -0.000001 0.000000 0.000000 0.000001 0.000000 0.000000 -0.000001 0.000000 0.000000 -0.000001 0.000000 0.000000 -0.000001 0.000000 0.000000 0.000001 0.000000 0.000000 -0.000001 0.000000 0.000000 -0.000001 0.000000 0.000000 -0.000001 0.000000 0.000000 0.000001 0.000000 0.000000 -0.000002 -0.000001 0.000000 -0.000002 -0.000001 0.000000 -0.000002 -0.000001 0.000000 
-2.413685 30.661255 67.009682 23.733845 -24.801747 -5.222937 0.000001 0.000001 0.000000 0.128661 4.075827 -3.113017 88.945517 -12.217973 -0.820470 23.282863 -4.334761 -27.328133 -0.000001 0.000000 0.000000 0.000001 0.000000 0.000002 10.670314 8.497150 -11.478600 58.179087 11.918770 -13.356809 42.314706 6.799945 19.782422 0.000001 -0.000000 0.000001 0.000001 -0.000000 -0.000001 5.265640 0.691926 0.534004 -5.663059 1.353727 2.575407 -5.679923 1.360146 2.479902 -67.748462 0.721245 15.041649 14.908418 14.198107 -18.680199 -0.000001 0.000000 -0.000001 -0.000001 0.000000 -0.000001 -0.000001 0.000000 -0.000001 -0.000001 0.000000 -0.000001 0.000001 -0.000000 0.000001 -0.000001 0.000000 -0.000001 0.000001 -0.000000 0.000001 -0.000001 0.000000 -0.000001 -0.000001 0.000000 -0.000001 -19.520756 3.090941 -14.887415 13.533070 12.286149 -45.847361 67.504686 -25.443290 27.159228 -20.419568 21.822099 -2.446590 -0.950504 -7.516252 8.582046 2.566226 20.394933 -1.999378 0.000001 0.000003 -0.000002 13.329678 -0.994423 14.150500 -0.171354 0.301047 -27.637160 -0.000001 0.000000 0.000003 8.552608 -0.361261 2.552876 0.212469 0.648787 -26.433237 -0.000001 0.000001 -0.000001 6.149233 3.112635 -12.744927 0.046346 0.299217 -26.657035 -0.000001 0.000001 -0.000002 -5.620585 7.690177 -10.412281 0.211253 0.265086 -43.119845 -0.000003 -0.000001 -0.000001 -0.000000 -0.000001 0.000004 -19.127494 2.546782 17.483027 8.238801 -0.098705 58.067973 160.341751 133.889808 -158.935715 44.865470 -12.163827 -5.670163 0.606826 8.469567 -11.222024 -1.352354 -12.093393 3.793181 0.000000 -0.000002 -0.000001 19.436743 11.170176 -17.752872 -0.122617 -0.318693 13.621595 -0.000001 -0.000001 -0.000002 4.393240 2.475393 -9.228053 0.325889 -0.443942 22.476245 -0.000003 0.000002 -0.000002 -6.967930 -10.659749 1.313154 0.113205 -0.059663 21.741932 -0.000000 0.000001 -0.000002 -19.419167 -20.222360 1.578870 0.209900 -0.068459 32.430653 0.000001 0.000001 0.000001 -0.000002 -0.000003 0.000001 0.000000 -0.000000 0.000001 0.000000 -0.000000 -0.000000 0.000000 -0.000000 0.000001 0.000000 -0.000000 0.000001 0.000000 -0.000000 0.000001 0.000000 -0.000000 -0.000000 0.000000 -0.000000 0.000001 0.000000 -0.000000 0.000001 0.000000 -0.000000 0.000001 0.000000 -0.000000 -0.000000 0.000001 0.000001 0.000000 0.000001 0.000001 0.000000 0.000001 0.000001 0.000000 
